<svg xmlns="http://www.w3.org/2000/svg" viewBox="0 0 47 28"><rect width="47" height="28" style="fill:#222"/><path d="M14.79,18.14V9.93h2.7a3.1,3.1,0,0,1,1.51.32,2.07,2.07,0,0,1,.9.88,2.66,2.66,0,0,1,.29,1.28,2.59,2.59,0,0,1-.29,1.27,2.1,2.1,0,0,1-.9.87,3.21,3.21,0,0,1-1.5.31H15.25v-.77h2.23a2.41,2.41,0,0,0,1.07-.2,1.37,1.37,0,0,0,.61-.58,1.93,1.93,0,0,0,.2-.9,2,2,0,0,0-.2-.91,1.34,1.34,0,0,0-.62-.6,2.39,2.39,0,0,0-1.07-.22H15.64v7.46Zm3.72-3.7,2,3.7h-1l-2-3.7Z" style="fill:#fff"/><path d="M30.15,18.25A3.4,3.4,0,0,1,28.77,18a2.3,2.3,0,0,1-1-.76,2,2,0,0,1-.38-1.13h.86a1.29,1.29,0,0,0,.28.74,1.51,1.51,0,0,0,.66.49,2.21,2.21,0,0,0,.91.18,2.32,2.32,0,0,0,1-.2,1.65,1.65,0,0,0,.66-.56,1.44,1.44,0,0,0,.25-.81,1.54,1.54,0,0,0-.25-.85,1.61,1.61,0,0,0-.7-.57A2.55,2.55,0,0,0,30,14.3h-.56v-.76H30a2.21,2.21,0,0,0,.91-.18,1.53,1.53,0,0,0,.62-.53,1.39,1.39,0,0,0,.22-.8,1.49,1.49,0,0,0-.19-.77,1.41,1.41,0,0,0-.56-.52,1.78,1.78,0,0,0-.83-.18,2.14,2.14,0,0,0-.84.17,1.54,1.54,0,0,0-.63.49,1.31,1.31,0,0,0-.26.76h-.82A1.93,1.93,0,0,1,28,10.85a2.29,2.29,0,0,1,.92-.76,2.82,2.82,0,0,1,1.27-.28,2.6,2.6,0,0,1,1.28.3,2.28,2.28,0,0,1,.83.8A2.13,2.13,0,0,1,32.57,12a1.93,1.93,0,0,1-.38,1.2,1.85,1.85,0,0,1-1,.68v.06a1.94,1.94,0,0,1,1.68,2,2.13,2.13,0,0,1-.35,1.19,2.46,2.46,0,0,1-1,.83A3.09,3.09,0,0,1,30.15,18.25Z" style="fill:#fff"/></svg>