<svg xmlns="http://www.w3.org/2000/svg" xmlns:xlink="http://www.w3.org/1999/xlink" viewBox="0 0 221.22 85.05" width="722.4" height="277.733">
<defs><linearGradient id="a" x1="13.47" y1="19.15" x2="13.47" gradientUnits="userSpaceOnUse"><stop offset="0" stop-color="#dc0056"/><stop offset="1" stop-color="#ad0244"/></linearGradient><linearGradient id="b" x1="4.16" y1="19.15" x2="4.16" y2="14.36" xlink:href="#a"/><linearGradient id="c" x1="25.7" y1="42.7" x2="25.7" y2="23.48" xlink:href="#a"/><linearGradient id="d" x1="9.66" y1="42.62" x2="9.66" y2="23.48" xlink:href="#a"/><linearGradient id="e" x1="16.05" y1="34.18" x2="16.05" y2="30.31" xlink:href="#a"/><linearGradient id="f" x1="23.23" y1="64.55" x2="23.23" y2="47.03" xlink:href="#a"/><symbol id="g" viewBox="0 0 35.77 64.55"><path d="M2.82,7.26,3.49,9.8l.74.31L7,8.52a.94.94,0,0,1,.92,0,1,1,0,0,1,.49.78l.19,3.2c.22.14.45.29.67.45l3-1a.95.95,0,0,1,1.23,1l-.44,3.18.56.57,3.19-.42a1,1,0,0,1,.85.34.94.94,0,0,1,.15.9l-.57,1.66h6.83L17.86,0,9,0Z" style="fill:url(#a)"/><path d="M1.57,19.15H8.31A23.65,23.65,0,0,0,0,14.36Z" style="fill:url(#b)"/><path d="M19.59,25.59c.1.25.21.49.3.74l3.1.84a.91.91,0,0,1,.65.64.93.93,0,0,1-.19.89l-2.13,2.39c.06.27.11.53.16.8l2.87,1.42a.93.93,0,0,1,.51.75.91.91,0,0,1-.36.84l-2.56,1.94v.8l2.54,2a.94.94,0,0,1-.16,1.59l-2.89,1.4v.06l10.4.05L25.53,23.48H20.82Z" style="fill:url(#c)"/><path d="M9.24,42.59l6.4,0A23.53,23.53,0,0,0,16.33,37l-4.2-2.4a1.76,1.76,0,0,1-.66-2.4l2.79-4.89a23.8,23.8,0,0,0-2.14-3.82H3Z" style="fill:url(#d)"/><path d="M17,30.56a1.93,1.93,0,1,0,.72,2.64A1.93,1.93,0,0,0,17,30.56Z" style="fill:url(#e)"/><polygon points="25.94 64.55 16.41 64.5 10.69 47.03 23.7 47.1 24.79 47.83 26.93 54.12 34.66 54.08 35.77 54.78 25.94 64.55" style="fill:url(#f)"/><polygon points="35.77 54.78 26.32 54.78 23.7 47.1 33.27 47.14 35.77 54.78" style="fill:#a60241"/></symbol></defs><rect y="0.05" width="221.22" height="85" rx="3.08" style="fill:#fff"/><path d="M75,44.49V14.79H87.29A12.89,12.89,0,0,1,93.06,16a8.72,8.72,0,0,1,3.75,3.43,10.13,10.13,0,0,1,1.32,5.27,9.68,9.68,0,0,1-1.35,5.24A8.56,8.56,0,0,1,93,33.2a14.1,14.1,0,0,1-5.87,1.12H79.32V28.67h6.42a7.64,7.64,0,0,0,2.72-.43,3.38,3.38,0,0,0,1.66-1.31,4,4,0,0,0,.57-2.25,4.25,4.25,0,0,0-.57-2.29A3.44,3.44,0,0,0,88.45,21a7.17,7.17,0,0,0-2.71-.46H82.2V44.49ZM91.75,30.91l7.39,13.58H91.31L84.06,30.91Z"/><path d="M111.19,44.89a14.78,14.78,0,0,1-6-1.16,10.08,10.08,0,0,1-4.12-3.23,7.93,7.93,0,0,1-1.54-4.74h7.22a3,3,0,0,0,.62,1.72A3.92,3.92,0,0,0,109,38.64a5.78,5.78,0,0,0,2.27.42,5.4,5.4,0,0,0,2.26-.45A3.83,3.83,0,0,0,115,37.35a3.18,3.18,0,0,0,.53-1.85,2.91,2.91,0,0,0-.59-1.86,4,4,0,0,0-1.72-1.26,6.94,6.94,0,0,0-2.62-.45h-2.88V26.82h2.88a5.84,5.84,0,0,0,2.33-.43,3.61,3.61,0,0,0,1.57-1.23,3,3,0,0,0,.56-1.82,3.17,3.17,0,0,0-.48-1.76,3.21,3.21,0,0,0-1.34-1.18,4.53,4.53,0,0,0-2-.42,5.32,5.32,0,0,0-2.15.42,3.61,3.61,0,0,0-1.53,1.19,3.07,3.07,0,0,0-.6,1.78h-6.86a8,8,0,0,1,1.48-4.68,9.81,9.81,0,0,1,4-3.16,13.48,13.48,0,0,1,5.71-1.15,13.16,13.16,0,0,1,5.61,1.12,9.07,9.07,0,0,1,3.78,3A7.41,7.41,0,0,1,122,22.88,5.49,5.49,0,0,1,120.35,27a7.34,7.34,0,0,1-4.23,2v.24a8.34,8.34,0,0,1,5.22,2.23,6.29,6.29,0,0,1,1.75,4.57,7.35,7.35,0,0,1-1.52,4.57,10.05,10.05,0,0,1-4.21,3.14A15.86,15.86,0,0,1,111.19,44.89Z"/><path d="M74.94,57.69V46.94h4.34a4.64,4.64,0,0,1,2.09.43A3.17,3.17,0,0,1,82.7,48.6a3.66,3.66,0,0,1,.46,1.88,3.49,3.49,0,0,1-.47,1.87,3,3,0,0,1-1.36,1.18,5.07,5.07,0,0,1-2.12.41H76.39V52h2.4a2.86,2.86,0,0,0,1-.17,1.26,1.26,0,0,0,.62-.51,1.57,1.57,0,0,0,.21-.85,1.64,1.64,0,0,0-.21-.86,1.32,1.32,0,0,0-.63-.53,2.6,2.6,0,0,0-1-.18H77.37v8.78Zm5.93-4.9,2.67,4.9H80.88l-2.62-4.9Z"/><path d="M87.53,57.84a4.41,4.41,0,0,1-2.15-.5A3.36,3.36,0,0,1,84,55.91a4.69,4.69,0,0,1-.49-2.22A4.58,4.58,0,0,1,84,51.51a3.51,3.51,0,0,1,1.37-1.46,4.06,4.06,0,0,1,2.09-.53,4.47,4.47,0,0,1,1.53.26,3.27,3.27,0,0,1,1.22.78A3.46,3.46,0,0,1,91,51.85a5.05,5.05,0,0,1,.29,1.77v.63H84.39V52.82h4.67a1.52,1.52,0,0,0-.21-.8,1.45,1.45,0,0,0-.55-.55,1.61,1.61,0,0,0-.8-.2,1.64,1.64,0,0,0-.84.22,1.54,1.54,0,0,0-.58.58,1.68,1.68,0,0,0-.22.8v1.42a2,2,0,0,0,.21,1,1.52,1.52,0,0,0,.6.63,1.86,1.86,0,0,0,.91.22,2,2,0,0,0,.65-.11,1.32,1.32,0,0,0,.5-.29,1.39,1.39,0,0,0,.32-.48l2.21.1a2.94,2.94,0,0,1-.64,1.34,3.22,3.22,0,0,1-1.28.88A4.8,4.8,0,0,1,87.53,57.84Z"/><path d="M94.15,57.83a3.32,3.32,0,0,1-1.37-.26,2.16,2.16,0,0,1-.94-.8,2.31,2.31,0,0,1-.35-1.33,2.38,2.38,0,0,1,.24-1.12,2,2,0,0,1,.66-.75,3.23,3.23,0,0,1,1-.43,6.89,6.89,0,0,1,1.15-.2c.46,0,.84-.09,1.12-.13a1.58,1.58,0,0,0,.62-.21.41.41,0,0,0,.19-.38v0a.88.88,0,0,0-.29-.7,1.3,1.3,0,0,0-.83-.25,1.39,1.39,0,0,0-.88.25,1.08,1.08,0,0,0-.44.63L91.78,52a2.72,2.72,0,0,1,.58-1.29,3,3,0,0,1,1.2-.87,4.55,4.55,0,0,1,1.77-.31,5.39,5.39,0,0,1,1.36.17,3.52,3.52,0,0,1,1.11.5,2.44,2.44,0,0,1,.75.85,2.49,2.49,0,0,1,.28,1.19v5.46H96.56V56.56H96.5a2.23,2.23,0,0,1-.53.68,2.29,2.29,0,0,1-.78.44A3.35,3.35,0,0,1,94.15,57.83Zm.72-1.61a1.79,1.79,0,0,0,.81-.18,1.5,1.5,0,0,0,.56-.5,1.3,1.3,0,0,0,.21-.73V54a1.09,1.09,0,0,1-.28.11,3.29,3.29,0,0,1-.37.1l-.42.07-.39.06a2.27,2.27,0,0,0-.65.19,1,1,0,0,0-.43.32.89.89,0,0,0-.14.5.75.75,0,0,0,.31.65A1.3,1.3,0,0,0,94.87,56.22Z"/><path d="M102.13,46.94V57.69h-2.4V46.94Z"/><path d="M108.1,52.37v1.87h-4.93V52.37Z"/><path d="M107.33,48.93v-2h9v2H113v8.76h-2.4V48.93Z"/><path d="M118.11,48.63a1.28,1.28,0,0,1-.9-.34,1.09,1.09,0,0,1-.37-.83,1.07,1.07,0,0,1,.37-.83,1.26,1.26,0,0,1,.89-.35,1.29,1.29,0,0,1,.9.35,1.11,1.11,0,0,1,.37.83,1.12,1.12,0,0,1-.37.83A1.27,1.27,0,0,1,118.11,48.63Zm-1.21,9.06V49.63h2.4v8.06Z"/><path d="M120.27,57.69V49.63h2.28v1.44h.09a2.25,2.25,0,0,1,.85-1.13,2.41,2.41,0,0,1,1.42-.42,2.36,2.36,0,0,1,1.42.42,2,2,0,0,1,.77,1.13h.08a2.17,2.17,0,0,1,.89-1.12,2.72,2.72,0,0,1,1.54-.43,2.45,2.45,0,0,1,1.85.73,2.71,2.71,0,0,1,.71,2v5.43h-2.39V52.78a1.27,1.27,0,0,0-.34-1,1.15,1.15,0,0,0-.85-.33,1.13,1.13,0,0,0-.89.37,1.44,1.44,0,0,0-.32,1v4.87h-2.31V52.74a1.25,1.25,0,0,0-.33-.92,1.08,1.08,0,0,0-.84-.34,1.25,1.25,0,0,0-.64.17,1.21,1.21,0,0,0-.43.49,1.58,1.58,0,0,0-.16.74v4.81Z"/><path d="M136.8,57.84a4.48,4.48,0,0,1-2.16-.5,3.48,3.48,0,0,1-1.39-1.43,4.81,4.81,0,0,1-.49-2.22,4.7,4.7,0,0,1,.49-2.18,3.6,3.6,0,0,1,1.38-1.46,4,4,0,0,1,2.09-.53,4.47,4.47,0,0,1,1.53.26,3.35,3.35,0,0,1,1.22.78,3.74,3.74,0,0,1,.81,1.29,5.06,5.06,0,0,1,.28,1.77v.63h-6.9V52.82h4.66a1.51,1.51,0,0,0-.2-.8,1.53,1.53,0,0,0-.55-.55,1.71,1.71,0,0,0-1.64,0,1.54,1.54,0,0,0-.58.58,1.68,1.68,0,0,0-.22.8v1.42a2,2,0,0,0,.21,1,1.56,1.56,0,0,0,.59.63,2,2,0,0,0,1.56.11,1.28,1.28,0,0,0,.51-.29,1.39,1.39,0,0,0,.32-.48l2.21.1a2.85,2.85,0,0,1-.65,1.34,3.18,3.18,0,0,1-1.27.88A4.8,4.8,0,0,1,136.8,57.84Z"/><path d="M85,64.31a6.27,6.27,0,0,1-.67,3,4.67,4.67,0,0,1-1.83,1.88,5.14,5.14,0,0,1-2.58.64,5.21,5.21,0,0,1-2.59-.64,4.67,4.67,0,0,1-1.82-1.89,7,7,0,0,1,0-6,4.62,4.62,0,0,1,1.82-1.87,5.21,5.21,0,0,1,2.59-.65,5.15,5.15,0,0,1,2.58.65,4.64,4.64,0,0,1,1.83,1.87A6.27,6.27,0,0,1,85,64.31Zm-2.47,0a4.79,4.79,0,0,0-.32-1.85,2.45,2.45,0,0,0-4.58,0,5.51,5.51,0,0,0,0,3.7,2.45,2.45,0,0,0,4.58,0A4.79,4.79,0,0,0,82.48,64.31Z"/><path d="M85.86,72.71V61.63h2.37V63h.09a2.55,2.55,0,0,1,.43-.69,2.25,2.25,0,0,1,.74-.57,2.61,2.61,0,0,1,1.11-.22,3.06,3.06,0,0,1,1.61.45,3.21,3.21,0,0,1,1.18,1.37,5.27,5.27,0,0,1,.45,2.32A5.38,5.38,0,0,1,93.41,68a3.18,3.18,0,0,1-1.17,1.39,2.93,2.93,0,0,1-1.64.47,2.54,2.54,0,0,1-1.08-.21,2.2,2.2,0,0,1-.75-.53,2.36,2.36,0,0,1-.45-.68h-.06v4.32Zm2.34-7a3.53,3.53,0,0,0,.19,1.19,1.73,1.73,0,0,0,.55.79,1.33,1.33,0,0,0,.86.28,1.35,1.35,0,0,0,.87-.28,1.85,1.85,0,0,0,.54-.79,3.63,3.63,0,0,0,.18-1.19,3.49,3.49,0,0,0-.18-1.18,1.69,1.69,0,0,0-.54-.79,1.34,1.34,0,0,0-.87-.28,1.36,1.36,0,0,0-.86.27,1.75,1.75,0,0,0-.55.78A3.6,3.6,0,0,0,88.2,65.66Z"/><path d="M98.22,69.84a4.41,4.41,0,0,1-2.15-.5,3.42,3.42,0,0,1-1.39-1.43,4.69,4.69,0,0,1-.49-2.22,4.58,4.58,0,0,1,.49-2.18,3.51,3.51,0,0,1,1.37-1.46,4.06,4.06,0,0,1,2.09-.53,4.47,4.47,0,0,1,1.53.26,3.27,3.27,0,0,1,1.22.78,3.46,3.46,0,0,1,.81,1.29,5.05,5.05,0,0,1,.29,1.77v.63h-6.9V64.82h4.66a1.52,1.52,0,0,0-.21-.8,1.45,1.45,0,0,0-.55-.55,1.61,1.61,0,0,0-.8-.2,1.64,1.64,0,0,0-.84.22,1.54,1.54,0,0,0-.58.58,1.68,1.68,0,0,0-.22.8v1.42a2.18,2.18,0,0,0,.21.95,1.52,1.52,0,0,0,.6.63,1.86,1.86,0,0,0,.91.22,2,2,0,0,0,.65-.11,1.32,1.32,0,0,0,.5-.29,1.39,1.39,0,0,0,.32-.48l2.21.1a2.94,2.94,0,0,1-.64,1.34,3.22,3.22,0,0,1-1.28.88A4.8,4.8,0,0,1,98.22,69.84Z"/><path d="M102.64,69.69V61.63H105v1.43H105a2.18,2.18,0,0,1,.73-1.16,1.91,1.91,0,0,1,1.18-.38,2.36,2.36,0,0,1,.37,0,1.59,1.59,0,0,1,.34.06v2.1a2,2,0,0,0-.45-.09,3.28,3.28,0,0,0-.52,0,1.7,1.7,0,0,0-.85.21,1.5,1.5,0,0,0-.59.58,1.6,1.6,0,0,0-.22.86v4.47Z"/><path d="M110.3,69.83a3.32,3.32,0,0,1-1.37-.26,2.16,2.16,0,0,1-.94-.8,2.31,2.31,0,0,1-.35-1.33,2.38,2.38,0,0,1,.24-1.12,2,2,0,0,1,.66-.75,3.23,3.23,0,0,1,1-.43,6.89,6.89,0,0,1,1.15-.2c.46,0,.84-.09,1.12-.13a1.58,1.58,0,0,0,.62-.21.41.41,0,0,0,.19-.38v0a.88.88,0,0,0-.29-.7,1.29,1.29,0,0,0-.82-.25,1.41,1.41,0,0,0-.89.25,1.08,1.08,0,0,0-.44.63L107.93,64a2.72,2.72,0,0,1,.58-1.29,3,3,0,0,1,1.2-.87,4.55,4.55,0,0,1,1.77-.31,5.39,5.39,0,0,1,1.36.17,3.52,3.52,0,0,1,1.11.5,2.44,2.44,0,0,1,.75.85,2.38,2.38,0,0,1,.28,1.19v5.46h-2.27V68.56h-.06a2.23,2.23,0,0,1-.53.68,2.29,2.29,0,0,1-.78.44A3.35,3.35,0,0,1,110.3,69.83Zm.72-1.61a1.79,1.79,0,0,0,.81-.18,1.5,1.5,0,0,0,.56-.5,1.3,1.3,0,0,0,.21-.73V66a1.09,1.09,0,0,1-.28.11,3.29,3.29,0,0,1-.37.1l-.42.07-.39.06a2.27,2.27,0,0,0-.65.19,1,1,0,0,0-.43.32.89.89,0,0,0-.14.5.75.75,0,0,0,.31.65A1.3,1.3,0,0,0,111,68.22Z"/><path d="M120.1,61.63v1.78h-5V61.63Zm-3.88-1.94h2.39v7.49a.86.86,0,0,0,.09.43.53.53,0,0,0,.24.23,1.08,1.08,0,0,0,.38.06l.31,0a.89.89,0,0,0,.24-.05l.38,1.76-.5.13a4,4,0,0,1-.76.09,3.55,3.55,0,0,1-1.48-.22,1.9,1.9,0,0,1-1-.77,2.34,2.34,0,0,1-.33-1.34Z"/><path d="M121.83,60.63a1.28,1.28,0,0,1-.9-.34,1.12,1.12,0,0,1-.37-.83,1.11,1.11,0,0,1,.37-.83,1.32,1.32,0,0,1,1.79,0,1.07,1.07,0,0,1,.37.83,1.09,1.09,0,0,1-.37.83A1.25,1.25,0,0,1,121.83,60.63Zm-1.2,9.06V61.63H123v8.06Z"/><path d="M126.39,65.06v4.63H124V61.63h2.28v1.44h.09a2.25,2.25,0,0,1,.91-1.13,2.7,2.7,0,0,1,1.53-.42,2.92,2.92,0,0,1,1.47.37,2.49,2.49,0,0,1,1,1.06,3.34,3.34,0,0,1,.35,1.6v5.14h-2.4V65a1.52,1.52,0,0,0-.36-1.11,1.31,1.31,0,0,0-1-.4,1.56,1.56,0,0,0-.76.19,1.25,1.25,0,0,0-.5.54A1.93,1.93,0,0,0,126.39,65.06Z"/><path d="M136.18,72.82a5.43,5.43,0,0,1-1.91-.3,3.08,3.08,0,0,1-1.26-.83,2.33,2.33,0,0,1-.58-1.16l2.25-.21a1,1,0,0,0,.27.4,1.52,1.52,0,0,0,.52.3,2.46,2.46,0,0,0,.77.11,1.88,1.88,0,0,0,1.14-.33,1.24,1.24,0,0,0,.44-1.08V68.27h-.09a2.11,2.11,0,0,1-.45.65,2.15,2.15,0,0,1-.76.48,3,3,0,0,1-1.08.18,3.24,3.24,0,0,1-1.63-.42,3,3,0,0,1-1.17-1.29,4.82,4.82,0,0,1-.44-2.22,5.3,5.3,0,0,1,.45-2.32A3.18,3.18,0,0,1,133.83,62a3,3,0,0,1,1.61-.45,2.68,2.68,0,0,1,1.11.22,2.25,2.25,0,0,1,.74.57,2.59,2.59,0,0,1,.44.69h.08V61.63h2.38v8.12a2.75,2.75,0,0,1-.51,1.68,3.22,3.22,0,0,1-1.41,1A5.87,5.87,0,0,1,136.18,72.82Zm.06-5a1.44,1.44,0,0,0,.86-.26,1.6,1.6,0,0,0,.55-.75,3.33,3.33,0,0,0,.18-1.16,3.45,3.45,0,0,0-.18-1.18,1.75,1.75,0,0,0-.55-.78,1.5,1.5,0,0,0-1.73,0,1.68,1.68,0,0,0-.54.78,3.51,3.51,0,0,0-.18,1.17,3.31,3.31,0,0,0,.18,1.15,1.59,1.59,0,0,0,.54.75A1.41,1.41,0,0,0,136.24,67.81Z"/><path d="M149.58,62.09a1.27,1.27,0,0,0-.51-.94,2,2,0,0,0-1.24-.34,2.56,2.56,0,0,0-.89.14,1.2,1.2,0,0,0-.54.4.91.91,0,0,0-.19.57.82.82,0,0,0,.11.47,1.13,1.13,0,0,0,.34.35,2.37,2.37,0,0,0,.53.25,5.19,5.19,0,0,0,.66.19l1,.22a6.38,6.38,0,0,1,1.34.44,4,4,0,0,1,1,.66,2.8,2.8,0,0,1,.65.92,2.92,2.92,0,0,1,.23,1.18,3,3,0,0,1-.5,1.72,3.18,3.18,0,0,1-1.45,1.12,6.81,6.81,0,0,1-4.57,0,3.24,3.24,0,0,1-1.53-1.2,3.57,3.57,0,0,1-.57-2h2.34a1.51,1.51,0,0,0,1,1.42,2.74,2.74,0,0,0,1,.18,2.45,2.45,0,0,0,.95-.16,1.36,1.36,0,0,0,.62-.43,1,1,0,0,0,.22-.63.88.88,0,0,0-.2-.57,1.6,1.6,0,0,0-.59-.4,6.09,6.09,0,0,0-1-.3L146.67,65a4.84,4.84,0,0,1-2.17-1,2.42,2.42,0,0,1-.79-1.91,2.84,2.84,0,0,1,.53-1.73,3.54,3.54,0,0,1,1.47-1.15,5.21,5.21,0,0,1,2.14-.42,5.06,5.06,0,0,1,2.13.42,3.3,3.3,0,0,1,1.41,1.16,3.11,3.11,0,0,1,.51,1.72Z"/><path d="M154.25,72.7a5.35,5.35,0,0,1-.83-.07,3.85,3.85,0,0,1-.66-.18l.54-1.76a2.05,2.05,0,0,0,1,.11.85.85,0,0,0,.63-.56L155,70l-2.88-8.32h2.51l1.59,5.84h.08l1.6-5.84h2.53l-3.09,8.88a3.69,3.69,0,0,1-.62,1.14,2.56,2.56,0,0,1-1,.77A3.65,3.65,0,0,1,154.25,72.7Z"/><path d="M167.33,64l-2.2.1a1,1,0,0,0-.21-.46,1.22,1.22,0,0,0-.44-.33,1.56,1.56,0,0,0-.64-.12,1.63,1.63,0,0,0-.82.2.6.6,0,0,0-.33.53.58.58,0,0,0,.21.45,1.56,1.56,0,0,0,.75.3l1.51.29a3.64,3.64,0,0,1,1.77.78,1.8,1.8,0,0,1,.58,1.41,2.23,2.23,0,0,1-.47,1.42,3.19,3.19,0,0,1-1.3.94,5,5,0,0,1-1.88.33,4.44,4.44,0,0,1-2.63-.69,2.6,2.6,0,0,1-1.13-1.86l2.37-.09a1,1,0,0,0,.45.71,1.72,1.72,0,0,0,1,.24,1.6,1.6,0,0,0,.87-.21.61.61,0,0,0,.34-.54.57.57,0,0,0-.24-.47,1.89,1.89,0,0,0-.76-.28l-1.4-.27a3.36,3.36,0,0,1-1.79-.82,2,2,0,0,1-.58-1.5,2.15,2.15,0,0,1,.43-1.36,2.69,2.69,0,0,1,1.21-.87,5,5,0,0,1,1.85-.31,4.18,4.18,0,0,1,2.49.66A2.51,2.51,0,0,1,167.33,64Z"/><path d="M172.48,61.63v1.78h-5V61.63Zm-3.89-1.94H171v7.49a.86.86,0,0,0,.09.43.53.53,0,0,0,.24.23,1.08,1.08,0,0,0,.38.06l.31,0a.89.89,0,0,0,.24-.05l.37,1.76a4.5,4.5,0,0,1-.49.13,4,4,0,0,1-.77.09,3.51,3.51,0,0,1-1.47-.22,2,2,0,0,1-1-.77,2.51,2.51,0,0,1-.33-1.34Z"/><path d="M176.43,69.84a4.48,4.48,0,0,1-2.16-.5,3.48,3.48,0,0,1-1.39-1.43,4.81,4.81,0,0,1-.49-2.22,4.7,4.7,0,0,1,.49-2.18,3.6,3.6,0,0,1,1.38-1.46,4,4,0,0,1,2.09-.53,4.47,4.47,0,0,1,1.53.26,3.35,3.35,0,0,1,1.22.78,3.74,3.74,0,0,1,.81,1.29,5.06,5.06,0,0,1,.28,1.77v.63h-6.9V64.82H178a1.51,1.51,0,0,0-.2-.8,1.53,1.53,0,0,0-.55-.55,1.62,1.62,0,0,0-.81-.2,1.7,1.7,0,0,0-.84.22,1.59,1.59,0,0,0-.57.58,1.68,1.68,0,0,0-.22.8v1.42a2,2,0,0,0,.21.95,1.56,1.56,0,0,0,.59.63,2,2,0,0,0,1.56.11,1.28,1.28,0,0,0,.51-.29,1.39,1.39,0,0,0,.32-.48l2.21.1a2.85,2.85,0,0,1-.65,1.34,3.18,3.18,0,0,1-1.27.88A4.8,4.8,0,0,1,176.43,69.84Z"/><path d="M180.85,69.69V61.63h2.27v1.44h.09a2.25,2.25,0,0,1,.85-1.13,2.41,2.41,0,0,1,1.42-.42,2.36,2.36,0,0,1,1.42.42,2,2,0,0,1,.77,1.13h.08a2.17,2.17,0,0,1,.89-1.12,2.72,2.72,0,0,1,1.54-.43,2.45,2.45,0,0,1,1.85.73,2.71,2.71,0,0,1,.71,2v5.43h-2.39V64.78a1.27,1.27,0,0,0-.34-1,1.15,1.15,0,0,0-.85-.33,1.13,1.13,0,0,0-.89.37,1.44,1.44,0,0,0-.32,1v4.87h-2.31v-5a1.25,1.25,0,0,0-.33-.92,1.08,1.08,0,0,0-.84-.34,1.19,1.19,0,0,0-.63.17,1.23,1.23,0,0,0-.44.49,1.58,1.58,0,0,0-.16.74v4.81Z"/><use width="35.77" height="64.55" transform="translate(21.88 10.9)" xlink:href="#g"/></svg>