<svg xmlns="http://www.w3.org/2000/svg" xmlns:xlink="http://www.w3.org/1999/xlink" viewBox="0 0 85.05 85.05"><defs><linearGradient id="a" x1="35.09" y1="30.09" x2="35.09" y2="10.86" gradientUnits="userSpaceOnUse"><stop offset="0" stop-color="#b90048"/><stop offset="1" stop-color="#7d0131"/></linearGradient><linearGradient id="b" x1="29.55" y1="30.09" x2="29.55" y2="25.29" xlink:href="#a"/><linearGradient id="c" x1="51.09" y1="53.64" x2="51.09" y2="34.41" xlink:href="#a"/><linearGradient id="d" x1="35.05" y1="53.56" x2="35.05" y2="34.41" xlink:href="#a"/><linearGradient id="e" x1="41.44" y1="45.11" x2="41.44" y2="41.25" xlink:href="#a"/><linearGradient id="f" x1="50.23" y1="75.55" x2="50.23" y2="57.96" xlink:href="#a"/></defs><path d="M24.12,19.28l2.42-2.11a.94.94,0,0,1,1.53.47l.81,3.1.74.31,2.78-1.6a.94.94,0,0,1,.92,0,1,1,0,0,1,.49.77l.19,3.2.67.45,3-1a.9.9,0,0,1,.89.16.93.93,0,0,1,.34.85L38.5,27c.19.18.38.37.56.56l3.18-.41a.94.94,0,0,1,.85.34.92.92,0,0,1,.16.9l-.57,1.66h6.83L43.25,11l-22.58-.11,2.7,8.27Z" style="fill:url(#a)"/><path d="M27,30.09H33.7a23.52,23.52,0,0,0-8.31-4.8Z" style="fill:url(#b)"/><path d="M45,36.52c.1.25.21.5.3.75l3.1.83a1,1,0,0,1,.46,1.54L46.71,42c0,.26.11.53.16.79l2.87,1.43a.95.95,0,0,1,.15,1.59l-2.56,1.94c0,.26,0,.53,0,.8l2.55,2a1,1,0,0,1,.36.85.92.92,0,0,1-.52.74l-2.89,1.41v.06l10.4,0L50.92,34.41H46.21Z" style="fill:url(#c)"/><path d="M34.63,53.53l6.4,0a23.59,23.59,0,0,0,.69-5.63l-4.2-2.4a1.77,1.77,0,0,1-.66-2.41l2.79-4.88a23.2,23.2,0,0,0-2.15-3.83H28.37Z" style="fill:url(#d)"/><path d="M42.39,41.5a1.93,1.93,0,1,0,.72,2.64A1.92,1.92,0,0,0,42.39,41.5Z" style="fill:url(#e)"/><polygon points="64.38 75.55 41.8 75.44 36.08 57.96 58.66 58.08 64.38 75.55" style="fill:url(#f)"/></svg>