<svg xmlns="http://www.w3.org/2000/svg" xmlns:xlink="http://www.w3.org/1999/xlink" viewBox="0 0 332.57 85.05"><defs><linearGradient id="a" x1="104.08" y1="30.09" x2="104.08" y2="10.86" gradientUnits="userSpaceOnUse"><stop offset="0" stop-color="#b90048"/><stop offset="1" stop-color="#7d0131"/></linearGradient><linearGradient id="b" x1="98.54" y1="30.09" x2="98.54" y2="25.29" xlink:href="#a"/><linearGradient id="c" x1="120.09" y1="53.64" x2="120.09" y2="34.41" xlink:href="#a"/><linearGradient id="d" x1="104.04" y1="53.56" x2="104.04" y2="34.41" xlink:href="#a"/><linearGradient id="e" x1="110.43" y1="45.11" x2="110.43" y2="41.25" xlink:href="#a"/><linearGradient id="f" x1="119.22" y1="75.55" x2="119.22" y2="57.96" xlink:href="#a"/></defs><rect y="0.05" width="332.57" height="85" rx="2.72" style="fill:#fff"/><path d="M93.12,19.28l2.42-2.11a.9.9,0,0,1,.89-.19.91.91,0,0,1,.63.66l.81,3.1.75.31,2.78-1.6a.92.92,0,0,1,.91,0,.91.91,0,0,1,.49.77l.2,3.2.66.45,3-1a.92.92,0,0,1,.9.16.93.93,0,0,1,.33.85L107.49,27l.57.56,3.18-.41a1,1,0,0,1,.85.34.92.92,0,0,1,.16.9l-.57,1.66h6.82L112.25,11l-22.59-.11,2.71,8.27Z" style="fill:url(#a)"/><path d="M96,30.09h6.75a23.61,23.61,0,0,0-8.31-4.8Z" style="fill:url(#b)"/><path d="M114,36.52c.11.25.21.5.31.75l3.09.83a1,1,0,0,1,.66.64,1,1,0,0,1-.2.9L115.71,42l.15.79,2.87,1.43a.94.94,0,0,1,.52.75,1,1,0,0,1-.37.84l-2.56,1.94c0,.26,0,.53,0,.8l2.55,2a1,1,0,0,1,.36.85,1,1,0,0,1-.53.74l-2.89,1.41v.06l10.41,0-6.29-19.23h-4.71Z" style="fill:url(#c)"/><path d="M103.62,53.53l6.4,0a23.58,23.58,0,0,0,.7-5.63l-4.21-2.4a1.76,1.76,0,0,1-.65-2.41l2.79-4.88a24,24,0,0,0-2.15-3.83H97.37Z" style="fill:url(#d)"/><path d="M111.39,41.5a1.93,1.93,0,1,0,.72,2.64A1.93,1.93,0,0,0,111.39,41.5Z" style="fill:url(#e)"/><polygon points="133.37 75.55 110.79 75.44 105.07 57.96 127.66 58.08 133.37 75.55" style="fill:url(#f)"/><path d="M29.14,64.23H18.93V24.08H35.05C45.71,24.08,51.3,29,51.3,36.8c0,5.39-2.82,9.5-8.22,11.56L53.36,64.23H41.86l-8-13.49-4.69.38Zm5-20.82c4.37-.32,6.74-2.12,6.74-6,0-3.54-2.44-5.27-7.58-5.27H29V43.54Z"/><path d="M84.05,52.66c0,7.78-7,12.53-15.93,12.53a28.57,28.57,0,0,1-11.88-2.63l1.35-7.33A29.37,29.37,0,0,0,67.8,57.67c4.11,0,7.52-1.6,7.52-4.94,0-2.77-2.57-5-8.16-4.89a43.82,43.82,0,0,0-6.23.58V41.74c7.9-1.54,12.65-3,12.65-6.42,0-2.19-1.6-3.86-5.2-3.86a17.09,17.09,0,0,0-9.31,3.22L56.3,27.61a23.88,23.88,0,0,1,13-3.92c7.78,0,13.17,3.34,13.17,10,0,4.69-3.4,8-9.83,9.77C80.33,43.22,84.05,47.46,84.05,52.66Z"/><path d="M156.88,53.8l-5.27,0c-.89-1.4-1.64-2.52-2.23-3.35s-1.33-1.79-2.22-2.89h-.53l0,4.17a1.2,1.2,0,0,0,.13.59,1,1,0,0,0,.49.41,3.77,3.77,0,0,0,.57.17c.27,0,.49.09.68.11v.76l-7.32-.07v-.76l.74-.07a3.26,3.26,0,0,0,.66-.13,1,1,0,0,0,.5-.39,1.41,1.41,0,0,0,.13-.6l.09-9.68a1.26,1.26,0,0,0-.1-.58.92.92,0,0,0-.51-.41,3.62,3.62,0,0,0-.72-.22c-.28-.06-.5-.11-.67-.13v-.76L149,40a7.67,7.67,0,0,1,3.91.84,2.67,2.67,0,0,1,1.32,2.46,3.23,3.23,0,0,1-.85,2.31A5.54,5.54,0,0,1,150.81,47c.43.57.93,1.24,1.51,2l1.8,2.31q.3.38.81.93a2.24,2.24,0,0,0,.91.68,2.82,2.82,0,0,0,.56.12l.49.07ZM150.4,43.53a2.51,2.51,0,0,0-.75-2,3.37,3.37,0,0,0-2.19-.66h-.76l-.06,5.75h.74a3,3,0,0,0,2.21-.73A3.14,3.14,0,0,0,150.4,43.53Z"/><path d="M166.58,51.59a6.5,6.5,0,0,1-.82,1,4.93,4.93,0,0,1-1.1.82,6,6,0,0,1-1.32.55,5.44,5.44,0,0,1-1.52.17,6.74,6.74,0,0,1-2.47-.43,4.83,4.83,0,0,1-1.7-1.11,4.41,4.41,0,0,1-1-1.63,5.8,5.8,0,0,1-.31-2,4.87,4.87,0,0,1,.38-1.89,5.32,5.32,0,0,1,1-1.6,4.94,4.94,0,0,1,1.67-1.09,5.61,5.61,0,0,1,2.25-.41,6.53,6.53,0,0,1,2.22.35,4,4,0,0,1,1.43.93,3.25,3.25,0,0,1,.79,1.31,5.1,5.1,0,0,1,.24,1.57v.63l-6.54-.07a5,5,0,0,0,.74,3A2.78,2.78,0,0,0,163,52.78a2.82,2.82,0,0,0,1.64-.48,4.65,4.65,0,0,0,1.25-1.25Zm-3.66-3.72c0-.38,0-.78,0-1.19a4.35,4.35,0,0,0-.19-1,1.57,1.57,0,0,0-.45-.7,1.2,1.2,0,0,0-.72-.24,1.35,1.35,0,0,0-1.19.75,5.17,5.17,0,0,0-.51,2.38Z"/><path d="M178.12,53.81a7.32,7.32,0,0,1-1,.33,4.94,4.94,0,0,1-1.23.14,3.43,3.43,0,0,1-1.75-.37,1.77,1.77,0,0,1-.75-1h0a7.56,7.56,0,0,1-.65.56,3.86,3.86,0,0,1-.65.39,6.22,6.22,0,0,1-.88.31,5.31,5.31,0,0,1-1.18.09,2.88,2.88,0,0,1-1.91-.68,2.17,2.17,0,0,1-.78-1.77,3.06,3.06,0,0,1,.19-1.07A2.18,2.18,0,0,1,168,50a2.48,2.48,0,0,1,.68-.51,8.42,8.42,0,0,1,.84-.37c.58-.2,1.28-.42,2.1-.64a11.14,11.14,0,0,0,1.78-.6V46.9a5.43,5.43,0,0,0,0-.64,1.78,1.78,0,0,0-.16-.66,1.2,1.2,0,0,0-.42-.53,1.25,1.25,0,0,0-.76-.22,1.86,1.86,0,0,0-.71.11,1.94,1.94,0,0,0-.46.25,3.15,3.15,0,0,0,.16.59,2.31,2.31,0,0,1,.12.76A1.22,1.22,0,0,1,171,47a.85.85,0,0,1-.25.39,1.63,1.63,0,0,1-.51.3,2.34,2.34,0,0,1-.85.09,1.71,1.71,0,0,1-1.22-.4,1.38,1.38,0,0,1,0-2,3.32,3.32,0,0,1,1.06-.7,5.76,5.76,0,0,1,1.4-.44,7.14,7.14,0,0,1,1.47-.14,11.26,11.26,0,0,1,1.72.13,4,4,0,0,1,1.41.47,2.52,2.52,0,0,1,.95,1,3.45,3.45,0,0,1,.33,1.68c0,.73,0,1.59-.07,2.59s-.06,1.66-.06,2a1.56,1.56,0,0,0,.12.68.89.89,0,0,0,.4.39,1.47,1.47,0,0,0,.52.09l.64,0Zm-4.74-5.09c-.37.12-.73.26-1.09.41a4.57,4.57,0,0,0-.87.49,1.74,1.74,0,0,0-.57.69,2.33,2.33,0,0,0-.22,1,1.49,1.49,0,0,0,.34,1.1,1.12,1.12,0,0,0,.84.35,1.66,1.66,0,0,0,.88-.21,2.38,2.38,0,0,0,.61-.53Z"/><path d="M184.63,54.08,178.54,54v-.71l.49,0a1.81,1.81,0,0,0,.43-.1.69.69,0,0,0,.42-.33,1.15,1.15,0,0,0,.12-.57l.11-10.72a1.57,1.57,0,0,0-.15-.68,1.18,1.18,0,0,0-.39-.48,2.25,2.25,0,0,0-.59-.25,2.91,2.91,0,0,0-.69-.14v-.71l4.88-.2.14.16-.13,12.93a1.22,1.22,0,0,0,.12.58.89.89,0,0,0,.41.35l.41.16a2.21,2.21,0,0,0,.5.1Z"/><path d="M191,49.93l-5.86-.06,0-2.13,5.86,0Z"/><path d="M203.17,44.46h-.75a9,9,0,0,0-.94-1.89c-.44-.68-.84-1-1.21-1.1-.21,0-.46-.05-.76-.07s-.57,0-.79,0h-.45l-.11,10.76a1.52,1.52,0,0,0,.12.62.94.94,0,0,0,.49.42,5.07,5.07,0,0,0,.69.19l.8.14v.75l-7.65-.07V53.4l.79-.07a3.09,3.09,0,0,0,.69-.13.94.94,0,0,0,.51-.41,1.46,1.46,0,0,0,.13-.62l.11-10.86h-.46c-.21,0-.48,0-.78,0l-.76.06c-.37,0-.79.4-1.23,1.07a8.11,8.11,0,0,0-1,1.88h-.76l0-3.93,13.3.13Z"/><path d="M209.7,54.33l-6.11-.07v-.7l.5-.05a1.3,1.3,0,0,0,.42-.09.74.74,0,0,0,.43-.33,1.14,1.14,0,0,0,.14-.57l0-5.63a1.16,1.16,0,0,0-.15-.6,1.25,1.25,0,0,0-.38-.41,1.93,1.93,0,0,0-.53-.23,3.37,3.37,0,0,0-.64-.14V44.8l4.74-.2.15.15-.08,7.67a1.06,1.06,0,0,0,.14.58.85.85,0,0,0,.41.36,4.09,4.09,0,0,0,.42.16,3.86,3.86,0,0,0,.49.1Zm-1.28-13.21a1.64,1.64,0,0,1-.58,1.24,1.91,1.91,0,0,1-1.34.51,2,2,0,0,1-1.35-.53,1.68,1.68,0,0,1,0-2.51,2,2,0,0,1,2.69,0A1.67,1.67,0,0,1,208.42,41.12Z"/><path d="M229.5,54.52l-5.75-.06v-.7l.44,0a1.07,1.07,0,0,0,.39-.09.46.46,0,0,0,.27-.32,2.38,2.38,0,0,0,.06-.59L225,48.2a2.64,2.64,0,0,0-.34-1.5,1.21,1.21,0,0,0-1-.51,1.88,1.88,0,0,0-.74.13,2.83,2.83,0,0,0-.6.31,2,2,0,0,0-.44.41l-.27.34,0,5.2a1.74,1.74,0,0,0,.07.56.73.73,0,0,0,.3.35l.35.16a2.58,2.58,0,0,0,.42.1v.7l-5.49-.05v-.71l.44,0a1,1,0,0,0,.38-.1.47.47,0,0,0,.27-.3,2.73,2.73,0,0,0,.07-.6l0-4.52a2.6,2.6,0,0,0-.34-1.5,1.16,1.16,0,0,0-1-.5,2,2,0,0,0-.74.12,2.46,2.46,0,0,0-.6.32,1.94,1.94,0,0,0-.44.4c-.11.13-.19.25-.27.35l-.05,5.19a1.49,1.49,0,0,0,.09.56.61.61,0,0,0,.3.35,1.61,1.61,0,0,0,.35.16,1.84,1.84,0,0,0,.42.1v.71l-5.79-.06v-.71l.49,0a2.2,2.2,0,0,0,.42-.09.79.79,0,0,0,.43-.33,1.22,1.22,0,0,0,.12-.58L211.8,47a1.22,1.22,0,0,0-.15-.61,1.38,1.38,0,0,0-.39-.46,1.63,1.63,0,0,0-.44-.2,2.58,2.58,0,0,0-.59-.11v-.71l4.62-.21.14.15v1.36h0l.65-.56a4.82,4.82,0,0,1,.71-.53,3.15,3.15,0,0,1,.92-.38,4.42,4.42,0,0,1,1.23-.14,3.29,3.29,0,0,1,1.84.49,2.65,2.65,0,0,1,1,1.28h.08l.7-.6a6,6,0,0,1,.75-.56,3.6,3.6,0,0,1,1-.4,5.06,5.06,0,0,1,1.26-.15,2.93,2.93,0,0,1,2.24.88,3.51,3.51,0,0,1,.76,2.46l0,4.7a1.23,1.23,0,0,0,.1.58.7.7,0,0,0,.38.33,2,2,0,0,0,.38.14,2.5,2.5,0,0,0,.53.1Z"/><path d="M240,52.31a5.77,5.77,0,0,1-.83,1,4.75,4.75,0,0,1-1.1.83,5.42,5.42,0,0,1-2.84.72,6.94,6.94,0,0,1-2.46-.43,5,5,0,0,1-1.71-1.11,4.34,4.34,0,0,1-1-1.63,5.84,5.84,0,0,1-.32-2,5.06,5.06,0,0,1,.38-1.89,5.16,5.16,0,0,1,1.05-1.6,5,5,0,0,1,1.67-1.1,5.77,5.77,0,0,1,2.24-.4,6.49,6.49,0,0,1,2.22.35,4.05,4.05,0,0,1,1.44.92,3.51,3.51,0,0,1,.79,1.31,4.92,4.92,0,0,1,.23,1.58v.63l-6.53-.07a5,5,0,0,0,.73,3,2.83,2.83,0,0,0,2.42,1.06A2.87,2.87,0,0,0,238,53a4.64,4.64,0,0,0,1.25-1.25Zm-3.66-3.71c0-.39,0-.78,0-1.19a4,4,0,0,0-.19-1,1.58,1.58,0,0,0-.44-.69,1.13,1.13,0,0,0-.72-.24,1.36,1.36,0,0,0-1.2.75,5.06,5.06,0,0,0-.5,2.38Z"/><path d="M153.77,57.19a6.79,6.79,0,0,1,1.59,2.26,7,7,0,0,1,.56,3,7.8,7.8,0,0,1-.53,2.85,6.56,6.56,0,0,1-1.47,2.32,7,7,0,0,1-2.36,1.55,8.82,8.82,0,0,1-6,0,7.06,7.06,0,0,1-2.34-1.46,6.7,6.7,0,0,1-1.57-2.25,7,7,0,0,1-.56-2.93,7.82,7.82,0,0,1,.6-3,6.76,6.76,0,0,1,4-3.78,8.07,8.07,0,0,1,2.92-.49,8.32,8.32,0,0,1,2.88.53A7.09,7.09,0,0,1,153.77,57.19ZM151.19,67a7.75,7.75,0,0,0,.65-2,14.57,14.57,0,0,0,.21-2.52,16.07,16.07,0,0,0-.14-2.32,7.46,7.46,0,0,0-.56-2,3.73,3.73,0,0,0-1.09-1.42,2.71,2.71,0,0,0-1.7-.55,2.89,2.89,0,0,0-2.68,1.63,9.93,9.93,0,0,0-.95,4.69,14.49,14.49,0,0,0,.17,2.43,7.35,7.35,0,0,0,.61,2,3.63,3.63,0,0,0,1.08,1.36,2.82,2.82,0,0,0,1.64.49,2.74,2.74,0,0,0,1.65-.47A3.41,3.41,0,0,0,151.19,67Z"/><path d="M168.59,64.82a5,5,0,0,1-1.4,3.49,4.54,4.54,0,0,1-3.46,1.43,5.12,5.12,0,0,1-1.51-.21,3.37,3.37,0,0,1-.95-.47h-.08l0,2.72a1.15,1.15,0,0,0,.14.59.89.89,0,0,0,.42.37,3.3,3.3,0,0,0,.74.2c.32.06.58.1.79.12v.71l-7-.07V73l.61-.07a4.35,4.35,0,0,0,.55-.1.68.68,0,0,0,.43-.36,1.55,1.55,0,0,0,.11-.59l.1-9.89a1.4,1.4,0,0,0-.14-.56,1.11,1.11,0,0,0-.38-.43,1.74,1.74,0,0,0-.51-.22,4.62,4.62,0,0,0-.63-.11V60l4.72-.2.15.12,0,1.08.08,0a4.93,4.93,0,0,1,1.43-1,3.77,3.77,0,0,1,1.54-.34,3.92,3.92,0,0,1,3.15,1.45A5.75,5.75,0,0,1,168.59,64.82Zm-3.48,0a7.8,7.8,0,0,0-.09-1.39,3.86,3.86,0,0,0-.36-1.19,2.27,2.27,0,0,0-.68-.84,1.74,1.74,0,0,0-1-.32,1.84,1.84,0,0,0-1,.21,2.1,2.1,0,0,0-.66.56l-.06,5.48a2.73,2.73,0,0,0,.22.5,2.6,2.6,0,0,0,.32.49,1.39,1.39,0,0,0,.55.39,1.82,1.82,0,0,0,.67.14,1.72,1.72,0,0,0,1.54-1A6.29,6.29,0,0,0,165.11,64.83Z"/><path d="M179.71,67.33a5.36,5.36,0,0,1-.83,1,5,5,0,0,1-1.09.83,5.92,5.92,0,0,1-1.32.54,5.44,5.44,0,0,1-1.52.17,6.74,6.74,0,0,1-2.47-.43,4.57,4.57,0,0,1-1.7-1.11,4.33,4.33,0,0,1-1-1.63,5.8,5.8,0,0,1-.31-2,4.86,4.86,0,0,1,.38-1.88,5,5,0,0,1,1-1.6,5,5,0,0,1,1.67-1.1,5.6,5.6,0,0,1,2.25-.4,6.3,6.3,0,0,1,2.22.35,3.88,3.88,0,0,1,1.43.92,3.32,3.32,0,0,1,.79,1.31,5.15,5.15,0,0,1,.24,1.57v.63l-6.54-.06a5,5,0,0,0,.74,3,2.78,2.78,0,0,0,2.41,1.06,2.75,2.75,0,0,0,1.64-.48A4.51,4.51,0,0,0,179,66.79Zm-3.66-3.71c0-.39,0-.79,0-1.19a4.45,4.45,0,0,0-.19-1,1.54,1.54,0,0,0-.45-.69,1.08,1.08,0,0,0-.72-.24,1.32,1.32,0,0,0-1.19.74,5.21,5.21,0,0,0-.51,2.39Z"/><path d="M189.69,61.92a2,2,0,0,1-.47,1.28,1.49,1.49,0,0,1-1.2.55,2,2,0,0,1-1.19-.37,1.19,1.19,0,0,1-.48-1.06,2.27,2.27,0,0,1,.05-.52c0-.13.07-.24.09-.35a2.06,2.06,0,0,0-.94.3,3.11,3.11,0,0,0-.88.75l0,5.31a1.35,1.35,0,0,0,.1.57.81.81,0,0,0,.36.35,2.55,2.55,0,0,0,.69.18,5.42,5.42,0,0,0,.69.09v.71L180,69.64v-.7l.48,0a2.15,2.15,0,0,0,.43-.09.71.71,0,0,0,.42-.32,1.34,1.34,0,0,0,.13-.58l.05-5.63a1.14,1.14,0,0,0-.16-.63,1.28,1.28,0,0,0-.39-.44,1.65,1.65,0,0,0-.44-.2,3.15,3.15,0,0,0-.58-.11v-.71l4.61-.2.15.14,0,1.41h0a5.82,5.82,0,0,1,1.43-1.2,3.07,3.07,0,0,1,1.57-.43,2,2,0,0,1,1.44.57A2,2,0,0,1,189.69,61.92Z"/><path d="M200.81,69.65a7.05,7.05,0,0,1-1,.33,4.8,4.8,0,0,1-1.22.14,3.38,3.38,0,0,1-1.75-.37,1.77,1.77,0,0,1-.75-1H196a5.09,5.09,0,0,1-.64.55,2.73,2.73,0,0,1-.66.39,4,4,0,0,1-.88.31,5.12,5.12,0,0,1-1.17.1,2.93,2.93,0,0,1-1.91-.68,2.17,2.17,0,0,1-.78-1.77,2.82,2.82,0,0,1,.18-1.07,2.49,2.49,0,0,1,.5-.77,2.58,2.58,0,0,1,.68-.51,8.16,8.16,0,0,1,.84-.37c.59-.21,1.29-.42,2.1-.64a11,11,0,0,0,1.79-.6v-.93c0-.16,0-.37,0-.64a2.13,2.13,0,0,0-.16-.67,1.31,1.31,0,0,0-.42-.52,1.2,1.2,0,0,0-.76-.22,1.66,1.66,0,0,0-.71.11,2.53,2.53,0,0,0-.47.24,3.94,3.94,0,0,0,.16.6,2.34,2.34,0,0,1,.13.76,1.22,1.22,0,0,1-.09.41.9.9,0,0,1-.26.39,1.59,1.59,0,0,1-.5.3,2.63,2.63,0,0,1-.85.09,1.75,1.75,0,0,1-1.23-.4,1.33,1.33,0,0,1-.4-1,1.31,1.31,0,0,1,.44-1,3.39,3.39,0,0,1,1-.7,6,6,0,0,1,1.41-.44,7.14,7.14,0,0,1,1.47-.14,11.32,11.32,0,0,1,1.72.12,4.06,4.06,0,0,1,1.41.48,2.43,2.43,0,0,1,.94,1,3.56,3.56,0,0,1,.34,1.68c0,.73,0,1.59-.07,2.59s-.06,1.66-.06,2a1.38,1.38,0,0,0,.12.69.78.78,0,0,0,.4.38,1.23,1.23,0,0,0,.51.1l.65,0Zm-4.75-5.09c-.36.12-.72.26-1.08.41a4.68,4.68,0,0,0-.88.49,1.92,1.92,0,0,0-.57.69,2.19,2.19,0,0,0-.21,1,1.49,1.49,0,0,0,.33,1.1,1.19,1.19,0,0,0,.85.35,1.66,1.66,0,0,0,.88-.21,2.56,2.56,0,0,0,.61-.53Z"/><path d="M207.86,69.47a11.5,11.5,0,0,1-1.33.48,5.8,5.8,0,0,1-1.72.2,3.08,3.08,0,0,1-2.24-.75,2.87,2.87,0,0,1-.7-2.11l0-5.93-1.74,0V60.29l1.78,0,0-2.93,3.14,0,0,2.93,2.71,0v1.06l-2.69,0-.06,5.29a3.17,3.17,0,0,0,.3,1.61,1.25,1.25,0,0,0,1.13.48,5.1,5.1,0,0,0,.73,0,4.3,4.3,0,0,0,.65-.08Z"/><path d="M214.51,70l-6.11-.06v-.71l.5,0a1.45,1.45,0,0,0,.41-.1.73.73,0,0,0,.44-.33,1,1,0,0,0,.13-.57l.06-5.63a1.21,1.21,0,0,0-.15-.6,1.25,1.25,0,0,0-.38-.41,1.93,1.93,0,0,0-.53-.23,3.55,3.55,0,0,0-.64-.14v-.71l4.74-.2.14.15-.07,7.68a1,1,0,0,0,.14.57.85.85,0,0,0,.41.36,4.09,4.09,0,0,0,.42.16,3.86,3.86,0,0,0,.49.1Zm-1.28-13.21a1.66,1.66,0,0,1-.58,1.25A2,2,0,0,1,210,58a1.69,1.69,0,0,1,0-2.51,2,2,0,0,1,1.36-.51,1.94,1.94,0,0,1,1.34.54A1.67,1.67,0,0,1,213.23,56.78Z"/><path d="M227.86,70.12,222,70.06v-.71l.45,0a1.41,1.41,0,0,0,.39-.09.6.6,0,0,0,.3-.31,1.51,1.51,0,0,0,.09-.6l0-4.52A2.47,2.47,0,0,0,223,62.3a1.2,1.2,0,0,0-1.06-.51,2.19,2.19,0,0,0-.73.11,2.35,2.35,0,0,0-.65.33,2.67,2.67,0,0,0-.46.39c-.11.14-.21.25-.29.36l-.05,5.19a1.55,1.55,0,0,0,.09.57.66.66,0,0,0,.32.34,1.5,1.5,0,0,0,.38.16,2.72,2.72,0,0,0,.46.1v.71L215.09,70v-.7l.49-.05a2.2,2.2,0,0,0,.42-.09.71.71,0,0,0,.42-.32,1.38,1.38,0,0,0,.13-.58l.05-5.63a1.4,1.4,0,0,0-.55-1.07,1.39,1.39,0,0,0-.44-.2,3.15,3.15,0,0,0-.58-.11v-.71l4.61-.2.15.14,0,1.4h0l.66-.57a6.76,6.76,0,0,1,.73-.54,3.06,3.06,0,0,1,.94-.39,4.18,4.18,0,0,1,1.24-.15,3,3,0,0,1,2.35.92,3.45,3.45,0,0,1,.77,2.38l-.05,4.74a1.29,1.29,0,0,0,.1.57.73.73,0,0,0,.4.34,3.14,3.14,0,0,0,.38.14,2.43,2.43,0,0,0,.51.1Z"/><path d="M238.86,61.71l-2.13,0a3.35,3.35,0,0,1,.56.9,2.8,2.8,0,0,1,.18,1,2.38,2.38,0,0,1-.38,1.25,2.91,2.91,0,0,1-.94.94,5,5,0,0,1-1.39.58,6.77,6.77,0,0,1-1.72.19h-1.58a1.13,1.13,0,0,0-.26.27.59.59,0,0,0-.14.37.58.58,0,0,0,.33.59,3.3,3.3,0,0,0,1.22.2l1.78.09,1.29.08a4,4,0,0,1,1.11.23,3.35,3.35,0,0,1,1,.53,2.69,2.69,0,0,1,.73.87,2.55,2.55,0,0,1,.28,1.22,2.91,2.91,0,0,1-.37,1.38,3.12,3.12,0,0,1-1.09,1.11,6.44,6.44,0,0,1-1.84.75,11.19,11.19,0,0,1-2.65.24,9.4,9.4,0,0,1-3.86-.65,2,2,0,0,1-1.31-1.88,1.5,1.5,0,0,1,.73-1.25,4.24,4.24,0,0,1,2.23-.51v-.12a3.65,3.65,0,0,1-1.38-.81,1.63,1.63,0,0,1-.49-1.17,1.28,1.28,0,0,1,.21-.69,2,2,0,0,1,.51-.48,2.24,2.24,0,0,1,.66-.31l.65-.21v-.1a4.62,4.62,0,0,1-1.91-1.2,2.45,2.45,0,0,1-.6-1.71,2.59,2.59,0,0,1,1.33-2.26,6,6,0,0,1,3.33-.82,7.49,7.49,0,0,1,1.27.13,9.13,9.13,0,0,1,.93.2l3.76,0Zm-3,9.95a1.37,1.37,0,0,0-.18-.66,1.41,1.41,0,0,0-.81-.53,10.06,10.06,0,0,0-1.15-.09c-.53,0-1.26,0-2.18,0a2.72,2.72,0,0,0-.58.68,1.88,1.88,0,0,0-.23,1,1.29,1.29,0,0,0,.13.54,1.72,1.72,0,0,0,.42.54,2.58,2.58,0,0,0,.75.45,3.52,3.52,0,0,0,1.25.17,3.18,3.18,0,0,0,1.91-.46A1.82,1.82,0,0,0,235.84,71.66Zm-1.54-8.15a3.71,3.71,0,0,0-.34-1.8,1.16,1.16,0,0,0-1.1-.66,1.12,1.12,0,0,0-.66.17,1.34,1.34,0,0,0-.46.51,2.48,2.48,0,0,0-.23.77,6.56,6.56,0,0,0-.07.9,3.6,3.6,0,0,0,.35,1.74,1.14,1.14,0,0,0,1,.68,1.17,1.17,0,0,0,1.08-.59A3.2,3.2,0,0,0,234.3,63.51Z"/><path d="M249.26,70.71a8.32,8.32,0,0,1-2.34-.34,8.65,8.65,0,0,1-1.84-.76l-.67.67h-.82l-.08-5h.83a14,14,0,0,0,.7,1.5,7.38,7.38,0,0,0,1,1.41,5.09,5.09,0,0,0,1.31,1.07,3.47,3.47,0,0,0,1.71.43,2.85,2.85,0,0,0,2-.63,2.11,2.11,0,0,0,.72-1.61,1.77,1.77,0,0,0-.59-1.36,4.84,4.84,0,0,0-1.83-1l-1.49-.5c-.45-.15-.88-.31-1.27-.47a4.24,4.24,0,0,1-2-1.6,4,4,0,0,1-.65-2.3,3.45,3.45,0,0,1,.36-1.54,4.16,4.16,0,0,1,1-1.32,5,5,0,0,1,1.64-.89,6.63,6.63,0,0,1,2.17-.32,6.8,6.8,0,0,1,2.14.34,8.74,8.74,0,0,1,1.56.65l.59-.57h.84l0,4.69h-.83q-.28-.77-.66-1.56a7,7,0,0,0-.82-1.32,3.71,3.71,0,0,0-1.08-.9,2.91,2.91,0,0,0-1.45-.35,2.43,2.43,0,0,0-1.71.57,1.89,1.89,0,0,0-.68,1.46,1.74,1.74,0,0,0,.56,1.35,5.17,5.17,0,0,0,1.79.94l1.45.5c.5.16.94.32,1.32.47A4.73,4.73,0,0,1,254.29,64a3.78,3.78,0,0,1,.71,2.38,3.94,3.94,0,0,1-.43,1.72,4.12,4.12,0,0,1-1.14,1.37,5.67,5.67,0,0,1-1.8.92A7.74,7.74,0,0,1,249.26,70.71Z"/><path d="M266.8,61.61a2.33,2.33,0,0,0-.85.32,1.92,1.92,0,0,0-.69.81c-.57,1.17-1.15,2.41-1.75,3.73s-1.27,2.75-2,4.28a12.6,12.6,0,0,1-1.18,2.06A7.15,7.15,0,0,1,259.27,74a3.38,3.38,0,0,1-.93.55,2.67,2.67,0,0,1-.92.17,2.19,2.19,0,0,1-1.48-.53,1.52,1.52,0,0,1-.55-1.16,1.59,1.59,0,0,1,.07-.5,1.31,1.31,0,0,1,.27-.48,1.16,1.16,0,0,1,.48-.36,1.7,1.7,0,0,1,.73-.14,1.64,1.64,0,0,1,1,.39,5.68,5.68,0,0,1,1,1,7.62,7.62,0,0,0,.8-1,4.85,4.85,0,0,0,.71-1.29c-.76-1.62-1.42-3-2-4.21l-1.95-4a1.85,1.85,0,0,0-.65-.73,2.05,2.05,0,0,0-.85-.32v-.71l5.92.06v.71a2.88,2.88,0,0,0-.76.13c-.29.09-.43.21-.44.35a.55.55,0,0,0,0,.17,1.49,1.49,0,0,0,.11.26c.21.46.52,1.09.91,1.89s.85,1.75,1.38,2.83l1-2.35c.29-.66.56-1.3.83-1.94a1.33,1.33,0,0,0,.12-.38c0-.09,0-.15,0-.19A.39.39,0,0,0,264,62a1.4,1.4,0,0,0-.4-.23,2.24,2.24,0,0,0-.46-.15,2.32,2.32,0,0,0-.37-.07v-.71l4,0Z"/><path d="M270.94,70.87a6,6,0,0,1-1.83-.29,6.13,6.13,0,0,1-1.38-.6l-.3.66h-.75L266.59,67h.71a4.51,4.51,0,0,0,.47,1,5.41,5.41,0,0,0,.76,1,4.68,4.68,0,0,0,1,.75,2.65,2.65,0,0,0,1.24.31,2,2,0,0,0,1.32-.33,1.3,1.3,0,0,0,.44-1.06,1,1,0,0,0-.19-.64,1.78,1.78,0,0,0-.52-.44,5.13,5.13,0,0,0-.83-.33l-1.1-.34a11.72,11.72,0,0,1-1.13-.41,3.59,3.59,0,0,1-1-.63,2.75,2.75,0,0,1-.69-.92,2.89,2.89,0,0,1-.25-1.26,2.62,2.62,0,0,1,1.17-2.2,5,5,0,0,1,3-.81,7.35,7.35,0,0,1,1.62.19,8.17,8.17,0,0,1,1.24.41l.21-.57h.73L275,64h-.68a4,4,0,0,0-1.15-1.75,2.64,2.64,0,0,0-1.76-.75,2,2,0,0,0-1.17.3,1,1,0,0,0-.44.86,1.12,1.12,0,0,0,.62,1.07,9,9,0,0,0,1.73.64,5.69,5.69,0,0,1,2.52,1.23,2.6,2.6,0,0,1,.78,2A2.84,2.84,0,0,1,274.2,70,5.53,5.53,0,0,1,270.94,70.87Z"/><path d="M283.36,70.22a11.5,11.5,0,0,1-1.33.48,5.8,5.8,0,0,1-1.72.2,3,3,0,0,1-2.23-.76,2.79,2.79,0,0,1-.71-2.1l.05-5.93-1.74,0V61h1.78l0-2.93,3.14,0,0,2.93,2.72,0v1.06l-2.7,0-.06,5.29a3.2,3.2,0,0,0,.3,1.61,1.25,1.25,0,0,0,1.13.48l.73,0a4.12,4.12,0,0,0,.65-.08Z"/><path d="M293.68,68.46a5.62,5.62,0,0,1-.82,1,5,5,0,0,1-1.1.83,5.74,5.74,0,0,1-1.32.54,5.44,5.44,0,0,1-1.52.17,6.78,6.78,0,0,1-2.47-.43,4.83,4.83,0,0,1-1.7-1.11,4.33,4.33,0,0,1-1-1.63,6,6,0,0,1-.31-2,5,5,0,0,1,.38-1.88,5.09,5.09,0,0,1,1.05-1.61,5,5,0,0,1,1.67-1.09,5.56,5.56,0,0,1,2.24-.4,6.08,6.08,0,0,1,2.22.35,3.8,3.8,0,0,1,1.43.92,3.2,3.2,0,0,1,.79,1.31,5.15,5.15,0,0,1,.24,1.57v.63l-6.54-.06a5,5,0,0,0,.74,3,3.19,3.19,0,0,0,4.06.58A5,5,0,0,0,293,67.92ZM290,64.75c0-.39,0-.79,0-1.19a4,4,0,0,0-.19-1,1.48,1.48,0,0,0-.45-.69,1,1,0,0,0-.71-.24,1.33,1.33,0,0,0-1.2.74,5.2,5.2,0,0,0-.51,2.38Z"/><path d="M313.17,71l-5.75,0V70.2l.44,0a1.3,1.3,0,0,0,.39-.1.46.46,0,0,0,.27-.32,2.29,2.29,0,0,0,.06-.58l.05-4.52a2.69,2.69,0,0,0-.34-1.5,1.21,1.21,0,0,0-1-.51,1.88,1.88,0,0,0-.74.13,2.46,2.46,0,0,0-.6.32,1.74,1.74,0,0,0-.44.4l-.27.34-.05,5.2a1.74,1.74,0,0,0,.07.56.73.73,0,0,0,.3.35l.35.16a2.58,2.58,0,0,0,.42.1v.71l-5.49-.06v-.71l.44,0a1.24,1.24,0,0,0,.38-.09.52.52,0,0,0,.27-.31,2.58,2.58,0,0,0,.07-.6l0-4.51a2.56,2.56,0,0,0-.34-1.5,1.15,1.15,0,0,0-1-.51,2.13,2.13,0,0,0-.74.12,2.86,2.86,0,0,0-.6.32,1.94,1.94,0,0,0-.44.4l-.27.35L298.59,69a1.75,1.75,0,0,0,.08.56.66.66,0,0,0,.31.35,1.61,1.61,0,0,0,.35.16,1.84,1.84,0,0,0,.42.1v.71L294,70.77v-.7l.49,0a1.63,1.63,0,0,0,.42-.09.71.71,0,0,0,.43-.33,1.15,1.15,0,0,0,.12-.57l.05-5.63a1.22,1.22,0,0,0-.15-.61,1.3,1.3,0,0,0-.4-.46,1.43,1.43,0,0,0-.43-.2,3.26,3.26,0,0,0-.59-.11v-.71l4.61-.2.15.14v1.37h0l.65-.57a4.82,4.82,0,0,1,.71-.53,3.44,3.44,0,0,1,.92-.38A4.42,4.42,0,0,1,302.2,61a3.22,3.22,0,0,1,1.84.5,2.6,2.6,0,0,1,1,1.28h.08c.19-.17.42-.38.7-.61a6,6,0,0,1,.75-.56,3.6,3.6,0,0,1,1-.4,5.06,5.06,0,0,1,1.26-.15,2.9,2.9,0,0,1,2.24.89,3.48,3.48,0,0,1,.76,2.45l-.05,4.7a1.55,1.55,0,0,0,.1.58.74.74,0,0,0,.39.34l.38.14a3.34,3.34,0,0,0,.53.1Z"/></svg>